<?xml version="1.0" standalone="no"?>
<!DOCTYPE svg PUBLIC "-//W3C//DTD SVG 20010904//EN"
 "http://www.w3.org/TR/2001/REC-SVG-20010904/DTD/svg10.dtd">
<svg version="1.0" xmlns="http://www.w3.org/2000/svg"
 width="316.000000pt" height="297.000000pt" viewBox="0 0 416.000000 397.000000"
 preserveAspectRatio="xMidYMid meet">

<g transform="translate(0.000000,397.000000) scale(0.100000,-0.100000)"
fill="#000000" stroke="none">
<path d="M1860 3864 c0 -11 -6 -14 -22 -8 -13 4 -36 7 -52 6 -33 -1 -107 -30
-118 -47 -4 -5 -8 -7 -8 -2 0 4 -11 0 -25 -9 -14 -9 -22 -21 -19 -26 4 -6 -4
-8 -18 -7 -14 2 -32 -4 -42 -14 -20 -20 -72 -24 -60 -5 11 18 -67 -31 -101
-64 -16 -15 -41 -37 -54 -48 -15 -12 -19 -20 -10 -20 8 0 1 -7 -15 -15 -15 -8
-34 -15 -41 -15 -7 0 -18 -14 -25 -30 -7 -17 -18 -34 -24 -38 -17 -11 -46 -59
-46 -77 0 -8 -4 -15 -9 -15 -9 0 -71 -135 -71 -155 0 -7 -12 -48 -26 -91 -35
-108 -49 -231 -35 -306 6 -32 16 -86 22 -120 7 -35 16 -71 20 -80 5 -9 13 -49
19 -89 9 -65 30 -109 50 -109 12 0 23 117 24 255 1 82 6 138 13 151 23 40 44
167 33 204 -12 43 7 68 58 72 34 3 40 9 79 73 46 77 111 142 170 170 30 15 64
19 164 19 88 1 131 5 142 14 8 7 18 9 20 5 3 -5 41 -10 84 -11 43 -2 97 -8
120 -14 48 -12 128 -76 139 -111 3 -12 13 -30 22 -39 10 -12 13 -29 9 -53 -4
-24 -2 -38 6 -41 8 -3 12 -28 12 -69 0 -65 0 -65 -25 -60 -14 3 -64 6 -112 7
-70 1 -91 -2 -106 -15 -10 -9 -25 -17 -33 -17 -8 0 -38 -22 -66 -50 -67 -66
-70 -87 -34 -231 19 -74 26 -120 20 -130 -11 -22 10 -39 36 -29 15 6 25 1 42
-19 36 -45 35 -18 -6 75 -21 49 -38 90 -36 92 1 1 16 -3 34 -9 18 -6 35 -8 39
-4 4 4 1 10 -5 12 -21 7 -15 23 8 23 11 0 29 10 39 23 l18 22 11 -27 c6 -16
15 -28 21 -28 6 0 9 -4 6 -9 -3 -5 -15 -7 -26 -4 -11 3 -20 0 -20 -6 0 -5 -6
-8 -14 -5 -8 3 -16 1 -19 -3 -9 -14 128 -63 198 -72 49 -5 71 -14 105 -41 37
-29 41 -37 36 -64 -14 -67 -78 -126 -138 -126 -34 0 -61 -33 -61 -72 1 -18 -2
-26 -5 -18 -3 8 -16 23 -29 33 -12 10 -23 23 -23 28 0 6 -21 39 -46 74 -38 54
-51 65 -82 71 -20 4 -46 13 -57 20 -28 20 -30 19 -81 -28 l-45 -42 -35 19
c-32 17 -37 17 -69 2 -19 -9 -42 -28 -51 -42 -24 -37 -5 -48 73 -40 49 4 65 2
75 -10 7 -9 19 -21 26 -28 65 -59 88 -77 97 -77 5 0 1 -7 -9 -15 -10 -8 -45
-17 -78 -21 -32 -4 -61 -11 -64 -15 -7 -12 -64 -11 -64 1 0 17 -13 12 -83 -30
-70 -43 -93 -49 -83 -25 3 8 1 15 -4 15 -6 0 -10 -10 -10 -22 0 -17 -3 -19 -9
-9 -5 7 -14 10 -20 7 -41 -26 45 -51 136 -40 37 4 78 7 91 6 16 -2 22 2 22 18
0 25 15 26 46 1 21 -17 36 -18 114 -14 79 5 92 3 115 -15 l26 -20 -33 -10
c-18 -6 -58 -14 -88 -17 -59 -7 -190 -42 -190 -51 0 -8 23 -30 45 -41 11 -6
33 -9 48 -6 17 3 35 0 45 -9 12 -11 39 -14 98 -12 97 3 127 15 118 48 -6 24
11 45 24 31 4 -4 1 -10 -5 -12 -7 -3 -13 -9 -13 -14 0 -5 6 -8 13 -7 8 2 12
-13 11 -52 -1 -52 -3 -56 -52 -100 -75 -66 -147 -93 -257 -97 -49 -2 -101 -4
-115 -4 -14 -1 -43 6 -65 16 -22 10 -60 19 -85 19 -56 2 -102 20 -142 58 -17
16 -33 27 -35 25 -7 -8 30 -91 59 -132 94 -132 131 -175 246 -291 202 -202
218 -222 226 -285 10 -73 11 -122 1 -196 l-8 -62 38 -15 c52 -22 76 -20 120 9
46 32 64 27 113 -31 20 -25 62 -62 93 -83 l57 -38 73 69 c81 76 135 112 144
97 9 -14 25 -11 25 6 0 7 8 19 18 24 10 7 12 11 4 11 -16 0 -7 37 16 63 16 17
17 17 29 1 16 -21 17 -15 3 21 -8 20 -6 29 8 43 14 14 17 31 15 77 -2 41 1 55
7 45 8 -12 10 -11 10 8 0 12 -4 30 -9 40 -5 9 -28 58 -51 107 -57 120 -110
188 -176 226 l-54 30 0 138 c0 106 4 151 19 197 10 32 23 78 30 101 14 53 22
57 58 36 36 -20 79 -11 89 19 3 12 16 30 28 39 20 16 21 26 21 192 0 168 -1
176 -22 199 -22 23 -23 32 -23 199 0 96 -5 240 -12 321 l-12 147 27 66 c45
109 34 205 -31 273 -36 39 -98 110 -110 128 -10 14 -89 47 -102 42 -7 -2 -32
16 -57 40 -25 24 -51 41 -58 38 -7 -2 -22 7 -34 20 l-21 24 -22 -20 c-29 -27
-53 -28 -36 0 7 10 9 22 5 26 -6 6 -85 6 -137 0 -14 -2 -31 -4 -38 -5 -7 0
-10 -5 -7 -11 3 -5 -3 -10 -14 -10 -27 0 -27 16 -1 23 31 8 24 27 -10 27 -21
0 -30 -5 -30 -16z m190 -54 c0 -5 -2 -10 -4 -10 -3 0 -8 5 -11 10 -3 6 -1 10
4 10 6 0 11 -4 11 -10z m-330 -10 c0 -5 -7 -10 -15 -10 -8 0 -15 5 -15 10 0 6
7 10 15 10 8 0 15 -4 15 -10z m-65 -20 c-3 -5 -12 -10 -18 -10 -7 0 -6 4 3 10
19 12 23 12 15 0z m-141 -65 c-4 -8 -10 -15 -15 -15 -4 0 -6 7 -3 15 4 8 10
15 15 15 4 0 6 -7 3 -15z m-88 -117 c-10 -6 -20 -7 -24 -3 -9 8 20 25 31 18 5
-3 2 -10 -7 -15z m755 -754 c10 -12 3 -14 -39 -14 -28 0 -58 -3 -68 -7 -12 -4
-15 -2 -12 8 5 17 65 38 89 32 10 -3 24 -11 30 -19z m419 -1564 c0 -5 -2 -10
-4 -10 -3 0 -8 5 -11 10 -3 6 -1 10 4 10 6 0 11 -4 11 -10z"/>
<path d="M1383 3011 c-37 -23 -43 -41 -14 -41 11 0 21 -3 23 -7 5 -13 75 -62
103 -73 14 -5 24 -14 21 -19 -3 -5 2 -12 11 -15 25 -10 4 -24 -63 -41 -32 -9
-79 -29 -103 -46 -53 -37 -70 -34 -33 6 53 59 55 69 4 20 -29 -27 -52 -58 -52
-69 0 -11 3 -16 7 -13 3 4 12 2 20 -4 8 -7 29 -9 52 -5 26 4 41 2 43 -6 2 -6
10 -9 17 -7 11 4 10 9 -4 22 -9 10 -14 21 -11 25 4 3 11 0 16 -7 6 -11 25 -13
79 -8 44 4 69 2 66 -4 -4 -5 -21 -9 -38 -9 -49 0 -75 -10 -80 -31 -3 -10 -12
-19 -21 -19 -9 0 -16 -5 -16 -11 0 -8 12 -9 37 -4 51 9 81 26 131 74 24 23 47
39 53 36 15 -10 10 12 -6 25 -22 18 -18 28 12 32 23 3 28 8 30 37 2 20 -8 57
-23 91 -30 68 -45 76 -154 85 -65 5 -79 3 -107 -14z"/>
<path d="M1316 2953 c-14 -4 -15 -7 -6 -13 16 -10 52 -1 44 11 -5 9 -8 10 -38
2z"/>
<path d="M1264 2916 c-24 -38 -11 -55 14 -18 13 17 18 33 13 37 -6 3 -17 -6
-27 -19z"/>
<path d="M1067 2463 c-8 -7 -10 -73 -3 -73 3 0 18 13 34 29 21 21 26 33 19 40
-12 12 -40 14 -50 4z"/>
<path d="M1140 2355 c-9 -11 -10 -19 -3 -26 8 -8 13 -5 18 11 9 28 2 35 -15
15z"/>
<path d="M1955 2120 c-3 -6 1 -7 9 -4 18 7 21 14 7 14 -6 0 -13 -4 -16 -10z"/>
<path d="M1385 1378 c-13 -30 0 -398 16 -446 16 -50 49 -92 70 -92 17 0 17 3
3 53 -9 28 -24 72 -35 96 -27 63 -41 159 -40 294 0 64 -1 117 -2 117 -1 0 -7
-10 -12 -22z"/>
<path d="M2717 1193 l-28 -4 2 -79 c3 -68 0 -83 -17 -102 -29 -32 -74 -113
-74 -132 0 -9 -7 -16 -15 -16 -20 0 -38 -37 -31 -65 4 -14 0 -27 -9 -35 -8 -7
-15 -20 -15 -29 0 -14 2 -14 11 -1 8 12 9 10 4 -7 -3 -12 -2 -24 3 -27 13 -8
92 32 92 47 0 6 12 37 27 69 25 50 33 58 78 75 49 18 50 19 53 63 2 24 -2 64
-8 88 -13 52 -5 66 20 35 9 -12 20 -20 23 -17 3 3 8 -8 12 -25 3 -16 14 -36
23 -43 9 -7 14 -8 11 -3 -14 29 -50 107 -73 158 -26 59 -26 59 -89 50z"/>
<path d="M2479 713 c-13 -15 -12 -15 9 -4 14 7 22 8 22 1 0 -5 -4 -10 -10 -10
-5 0 -7 -7 -4 -15 5 -11 10 -12 24 -3 14 9 16 16 9 30 -12 23 -32 23 -50 1z"/>
<path d="M2458 683 c7 -3 16 -2 19 1 4 3 -2 6 -13 5 -11 0 -14 -3 -6 -6z"/>
<path d="M2535 669 c-10 -15 3 -25 16 -12 7 7 7 13 1 17 -6 3 -14 1 -17 -5z"/>
<path d="M3721 244 c-1 -12 -7 -24 -15 -27 -9 -4 -12 -14 -9 -29 3 -13 2 -20
-2 -16 -5 4 -14 3 -22 -3 -10 -9 -13 -7 -14 7 0 14 -2 15 -6 4 -3 -8 -14 -23
-25 -34 -10 -11 -18 -25 -18 -31 0 -7 -10 -20 -21 -31 l-21 -19 6 33 c3 17 9
45 12 62 3 17 3 30 1 30 -3 0 -13 -35 -22 -77 -9 -43 -19 -86 -21 -95 -5 -16
2 -18 46 -18 39 0 52 4 57 17 4 10 9 20 12 23 3 3 14 25 23 50 38 103 43 115
52 122 6 4 5 16 -1 30 -11 22 -12 22 -12 2z"/>
<path d="M3392 159 c2 -38 28 -76 28 -41 0 11 -7 33 -15 48 l-15 29 2 -36z"/>
<path d="M3417 50 c-6 -49 -5 -53 15 -48 10 2 11 12 2 48 l-11 45 -6 -45z"/>
<path d="M3795 42 c-3 -3 -5 -14 -5 -24 0 -13 7 -18 26 -18 14 0 23 4 19 10
-3 5 -13 7 -23 4 -16 -5 -16 -5 1 9 9 8 17 16 17 19 0 6 -29 6 -35 0z"/>
</g>
</svg>
